<svg viewBox="0 0 242 281" xmlns="http://www.w3.org/2000/svg">
<g><path fill="#261612" fill-opacity="0.016" d="M 113.1,198 c 0.34,-1.43 -0.87,-6.12 1.35,-6.26 c 19.03,0.06 38.05,0.11 57.06,0.13 c 0.61,0.76 0.84,1.63 0.7,2.62 c -0.17,15.67 -0.21,31.34 -0.13,47.02 c -0.06,1.18 0.24,3.38 -1.64,3.11 c -1.33,-0.35 -5.31,0.81 -5.66,-1.1 c 0.04,-14 -0.05,-28.01 -0.29,-42.02 c 0.12,-2.78 -1.21,-4.09 -3.99,-3.91 c -7,0.17 -14,0.15 -21,-0.07 c -2.78,0.24 -7.5,-0.57 -8.31,3.06 c 0.03,14.25 -0.11,28.5 -0.42,42.75 c -0.56,0.71 -1.31,1.04 -2.24,0.98 c -4.69,0.32 -9.36,0.25 -14.03,-0.21 c -0.52,-0.28 -0.82,-0.71 -0.9,-1.3 c -0.97,-14.4 0.01,-30.21 -0.5,-44.8 Z M 51.18,204.08 c 0.28,0.06 0.43,0.25 0.43,0.56 c 0.16,12.62 0.22,25.23 0.19,37.85 c 0.08,0.79 -0.17,1.43 -0.75,1.93 c -2.78,0.21 -5.57,0.22 -8.35,0.03 c -0.68,-0.08 -1.1,-0.45 -1.26,-1.11 c -0.38,-10.61 -0.45,-21.22 -0.21,-31.84 c -0.31,-1.82 0.29,-3.21 1.8,-4.18 c 2.84,-0.78 5.56,-1.86 8.15,-3.24 Z"/></g>
<g><path fill="#261612" fill-opacity="0.957" d="M 33.89,207.31 c 0.17,-9.49 0.4,-18.97 0.69,-28.46 c 0.93,-3.4 4.31,-3.16 6.28,-0.79 c 0.25,9.1 0.41,18.21 0.47,27.32 c -0.09,1.24 0.48,1.89 1.7,1.94 c -1.51,0.97 -2.11,2.36 -1.8,4.18 c -0.24,10.62 -0.17,21.23 0.21,31.84 c 0.16,0.66 0.58,1.03 1.26,1.11 c 2.78,0.19 5.57,0.18 8.35,-0.03 c 0.58,-0.5 0.83,-1.14 0.75,-1.93 c 0.03,-12.62 -0.03,-25.23 -0.19,-37.85 c 0,-0.31 -0.15,-0.5 -0.43,-0.56 c 0.11,-0.35 0.21,-0.7 0.32,-1.04 c 0.27,-20.04 0.34,-40.08 0.2,-60.12 c 0.21,-25.14 0.3,-50.28 0.28,-75.42 c -0.04,-3.61 1.58,-6.54 5.51,-6.57 c 9.3,-0.01 18.59,-0.04 27.88,-0.07 c 0.48,-0.31 0.72,-0.75 0.71,-1.33 c 0.11,-7.61 0.22,-15.23 0.33,-22.84 c 0.17,-2.6 1.54,-4.13 4.1,-4.58 c 5.91,0 11.81,-0.14 17.7,-0.44 c 0.38,-0.31 0.55,-0.72 0.52,-1.22 c 0.57,-3.94 -2.32,-13.86 2.83,-15.37 c 20.79,-0.43 43.96,-1.92 64.52,0.21 c 1.31,0.67 2.03,1.73 2.16,3.19 c 0.05,3.97 0.09,7.93 0.11,11.9 c 0.15,1.22 0.86,1.76 2.13,1.62 c 5.01,0.01 10.01,0.04 15.01,0.09 c 1.89,0.41 3.09,1.54 3.61,3.39 c 0.42,16.79 -0.29,33.73 0.37,50.52 c -0.16,1.67 0.56,2.54 2.16,2.63 c 4.29,-0.11 8.59,-0.08 12.88,0.09 c 1.81,0.12 2.93,1.05 3.35,2.8 c 0.58,36.24 -0.44,72.53 0.56,108.78 c -0.21,1.99 2.57,3.66 3.45,5.28 c 7.89,11.48 2.9,25.74 -9.33,31.44 c -0.99,1.17 -0.5,4.02 -0.69,5.51 c -0.68,4.81 8.69,-0.31 10.58,4.41 c 2.05,7.83 -15.45,3.15 -19.93,4.76 c -56,-0.03 -112,0.03 -168,0.16 c -3.87,-0.92 -18.93,1.95 -20.15,-2.81 c -0.28,-3.02 1.1,-4.52 4.14,-4.49 c 2.32,0.04 14.05,0.46 15.3,-0.29 c 0.33,-8.58 0.48,-17.17 0.45,-25.77 c 0.08,-3.74 -0.04,-7.47 -0.35,-11.19 Z M 115.55,30.07 c -0.19,2.07 1.31,1.93 2.94,1.97 c 16.73,-0.26 35.21,0.46 51.71,-0.49 c 0.73,-0.45 1.08,-1.13 1.04,-2.02 c 0.06,-2.36 0.09,-4.71 0.11,-7.07 c -0.24,-0.92 -0.86,-1.31 -1.86,-1.16 c -17.6,-0.02 -35.19,0 -52.78,0.06 c -0.76,0.48 -1.11,1.18 -1.06,2.11 c -0.01,2.2 -0.04,4.4 -0.1,6.6 Z M 58.62,100 c 0.34,47.5 0.46,95.01 0.35,142.51 c -0.02,0.6 0.18,1.1 0.62,1.51 c 1.95,0.41 3.92,0.56 5.92,0.46 c 12.98,0.03 25.96,0.09 38.93,0.19 c 1.28,0.01 1.94,-0.64 1.96,-1.95 c 0.26,-17.54 -0.3,-36.46 -0.16,-54.2 c 0.29,-2.53 1.71,-3.74 4.25,-3.63 c 21,0.02 42.01,0 63.01,-0.04 c 2.66,-0.34 5.49,0.47 5.47,3.63 c 0.1,18.28 0.2,36.55 0.3,54.83 c 0.46,0.71 1.14,1.08 2.02,1.09 c 3.43,0.21 6.86,0.15 10.28,-0.18 c 1.39,-0.68 0.76,-3.49 0.95,-4.73 c -0.08,-66.24 -0.6,-132.72 0.08,-198.94 c 0.55,-2.5 -3.76,-1.71 -5.1,-1.9 c -21.33,0.3 -42.67,0.28 -64,-0.06 c -9.95,0.16 -19.89,0.35 -29.83,0.57 c -0.42,0.35 -0.6,0.8 -0.55,1.35 c 0.02,7.99 -0.05,15.99 -0.22,23.98 c -0.04,1.73 -0.89,2.75 -2.57,3.06 c -9.95,0.13 -19.91,0.24 -29.87,0.33 c -0.61,-0.03 -1.1,0.2 -1.47,0.68 c -0.35,10.47 -0.47,20.95 -0.37,31.44 Z M 106.36,93 c 0.33,-12.15 0.34,-24.3 0.03,-36.46 c -0.03,-2.17 1,-3.47 3.09,-3.9 c 4.68,0.17 9.35,0.05 14.02,-0.37 c 17,0.29 34,0.26 51,-0.06 c 3.49,0.01 5,1.78 4.55,5.29 c -0.04,16.01 0.03,32.01 0.23,48.02 c 0.08,2.58 -1.18,3.81 -3.77,3.68 c -4.34,-0.06 -8.67,-0.04 -13.01,0.07 c -17.99,-0.03 -35.96,-0.16 -53.93,-0.38 c -1.07,-0.41 -1.67,-1.19 -1.8,-2.35 c -0.21,-4.51 -0.34,-9.02 -0.41,-13.54 Z M 113.18,68 c 0.25,2.46 -0.43,11.78 0.86,13.34 c 5.47,0.39 10.96,0.52 16.46,0.37 c 1.71,0.15 3.34,-0.09 4.89,-0.73 c 0.94,-3.76 0.37,-15.79 0.22,-20.34 c -0.06,-1.75 -1.85,-1.51 -3.11,-1.54 c -6.26,-0.07 -12.51,-0.01 -18.75,0.16 c -0.98,0.78 -0.35,7.25 -0.57,8.74 Z M 153.09,81.27 c 2.37,0.64 4.72,0.59 7.04,-0.17 c 3.09,0.35 6.2,0.51 9.32,0.49 c 1.73,0.36 2.62,-0.32 2.66,-2.05 c 0.02,-3.02 0.02,-6.03 -0.01,-9.04 c 0.07,-3.58 -0.07,-7.14 -0.43,-10.68 c -0.35,-0.33 -0.76,-0.48 -1.24,-0.44 c -3.48,-0.15 -6.96,-0.2 -10.44,-0.15 c -2,0.08 -5.41,-0.57 -7.09,0.69 c -0.3,-0.51 -0.77,-0.71 -1.41,-0.61 c -2.66,0.04 -5.31,0 -7.97,-0.1 c -0.54,-0.07 -0.99,0.09 -1.36,0.48 c -0.46,6.25 -0.62,12.53 -0.47,18.81 c 0.1,1.01 -0.19,2.72 1.05,3.17 c 3.12,0.03 7.37,0.41 10.35,-0.4 Z M 72.02,87 c -0.4,-2.32 0.45,-3.92 2.57,-4.79 c 4.97,-0.26 9.94,-0.29 14.91,-0.11 c 2.37,-0.08 3.57,1.05 3.61,3.39 c 0.03,6.67 0.03,13.35 -0.02,20.02 c 0.09,2.48 -1.1,3.67 -3.58,3.56 c -4.67,0.11 -9.34,0.08 -14.02,-0.07 c -2.24,-0.08 -3.39,-1.24 -3.44,-3.49 c -0.02,-6.17 -0.03,-12.34 -0.03,-18.51 Z M 113.35,92 c 0.02,3.07 0.05,6.14 0.09,9.21 c 0.16,0.53 0.5,0.85 1.04,0.98 c 18.69,0.54 37.38,0.54 56.07,-0.01 c 0.59,-0.01 1.03,-0.28 1.31,-0.79 c 0.17,-3.63 0.23,-7.27 0.18,-10.91 c 0.09,-0.86 -0.18,-1.57 -0.8,-2.13 c -18.57,-0.15 -37.15,-0.22 -55.74,-0.18 c -2.66,-0.28 -2.06,2.03 -2.15,3.83 Z M 78.45,100 c -0.53,3.87 4.66,2.38 6.9,2.59 c 0.46,0 0.85,-0.17 1.16,-0.51 c 0.11,-3.98 0.14,-7.97 0.08,-11.97 c -0.24,-1.05 -0.92,-1.52 -2.05,-1.39 c -1.38,0.39 -4.87,-0.53 -5.69,0.74 c -0.25,3.5 -0.38,7.01 -0.4,10.54 Z M 199.17,188 c 0.05,1.9 -0.03,8.02 0.81,9.48 c 2.13,-0.27 4.31,-0.42 6.53,-0.44 c 1.29,0.13 2.56,0.35 3.82,0.65 c 0.46,-0.25 0.69,-0.64 0.69,-1.17 c 0.62,-33.27 0.2,-66.77 0.1,-100.05 c -0.04,-0.56 -0.31,-0.94 -0.82,-1.15 c -3.21,0.02 -6.42,0.08 -9.63,0.17 c -1.03,0.25 -1.51,0.93 -1.42,2.03 c 0.13,30.16 0.1,60.32 -0.08,90.48 Z M 106.27,155 c 0.4,-11.83 0.72,-23.46 0.21,-35.29 c 0.13,-1.53 0.84,-2.68 2.14,-3.45 c 21.95,-0.26 43.91,-0.38 65.89,-0.35 c 4.93,-0.68 4.67,4.22 4.59,7.59 c 0.1,15 0.12,30.01 0.05,45.01 c 0.12,2.54 -1.09,3.82 -3.63,3.84 c -22.09,0.47 -44.17,0.49 -66.25,0.09 c -1.46,-0.21 -2.37,-1.02 -2.74,-2.43 c -0.16,-5 -0.25,-10.01 -0.26,-15.01 Z M 113.23,135 c 0.24,2.12 -0.51,7.98 0.68,9.52 c 3.18,0.39 6.37,0.55 9.59,0.48 c 3.89,0.09 7.76,-0.06 11.61,-0.45 c 0.6,-0.92 0.83,-1.93 0.69,-3.05 c 0.11,-6.15 -0.08,-12.28 -0.57,-18.4 c -0.8,-0.6 -1.71,-0.85 -2.73,-0.75 c -6.2,-0.25 -12.38,-0.18 -18.56,0.18 c -1.33,1.44 -0.39,10.13 -0.71,12.47 Z M 71.95,127 c -0.24,-2.04 0.61,-3.35 2.55,-3.94 c 5,-0.13 10,-0.14 15.01,-0.01 c 2.74,0.18 3.94,1.67 3.59,4.45 c 0.16,6.99 0.11,13.98 -0.15,20.96 c -0.67,1.49 -1.83,2.21 -3.49,2.19 c -4.83,0.22 -9.66,0.17 -14.48,-0.15 c -2.2,-0.41 -3.18,-1.74 -2.95,-4 c 0.01,-6.5 -0.02,-13 -0.08,-19.5 Z M 141.79,131.01 c -0.02,3.84 -0.04,7.68 -0.04,11.51 c -0.2,1.43 0.38,2.21 1.77,2.34 c 3.11,0.02 6.22,-0.02 9.33,-0.12 c 2.4,0.16 4.8,0.15 7.19,-0.05 c 3.75,0.08 7.5,0.08 11.25,0.02 c 0.48,-0.25 0.75,-0.64 0.8,-1.2 c 0.19,-6.65 0.14,-13.3 -0.15,-19.95 c -0.61,-0.77 -1.41,-1.1 -2.41,-0.98 c -2.49,0.24 -7.34,-0.57 -9.44,0.5 c -2.44,-0.61 -4.88,-0.56 -7.3,0.14 c -0.71,-0.37 -1.47,-0.56 -2.27,-0.58 c -2.68,-0.05 -5.35,0.04 -8,0.27 c -1.22,0.84 -0.45,6.54 -0.73,8.1 Z M 78.47,137 c 0.35,1.49 -0.48,6.39 1.01,7.09 c 2.32,0.28 4.64,0.25 6.94,-0.09 c 0.45,-0.39 0.64,-0.89 0.58,-1.49 c -0.06,-3.65 -0.12,-7.3 -0.16,-10.96 c -0.01,-1.49 -0.78,-2.17 -2.31,-2.05 c -1.61,0.35 -6.05,-0.87 -5.9,1.87 c -0.04,1.88 -0.09,3.75 -0.16,5.63 Z M 113.37,156 c 0,2.76 0.07,5.53 0.24,8.28 c 0.04,0.69 0.39,1.1 1.05,1.26 c 18.87,0.06 37.73,0.07 56.6,0.03 c 0.48,-0.18 0.72,-0.54 0.71,-1.06 c 0.17,-3.68 0.2,-7.35 0.12,-11.03 c 0.05,-0.79 -0.17,-1.47 -0.68,-2.05 c -18.29,0.03 -37.68,-0.48 -55.85,0.09 c -2.87,-0.17 -2.04,2.53 -2.19,4.48 Z M 71.98,170 c -0.05,-2.25 -0.17,-5.17 2.65,-5.67 c 5.28,0.06 10.57,0.02 15.86,-0.12 c 1.88,0.25 2.81,1.35 2.78,3.27 c -0.13,6.68 -0.17,13.35 -0.11,20.03 c 0.24,2.69 -0.99,4.11 -3.68,4.25 c -4.33,0.16 -8.66,0.21 -12.99,0.15 c -2.05,0.19 -3.49,-0.64 -4.3,-2.5 c -0.15,-6.47 -0.22,-12.94 -0.21,-19.41 Z M 78.53,181 c -0.01,0.87 0.01,1.74 0.06,2.61 c 0.14,2.58 6.08,1.54 7.7,1.21 c 0.38,-0.38 0.53,-0.85 0.47,-1.39 c -0.02,-1.93 0.32,-11.27 -0.47,-12.29 c -1.93,-0.33 -3.88,-0.45 -5.85,-0.36 c -0.63,-0.02 -1.14,0.22 -1.51,0.73 c -0.25,3.15 -0.38,6.32 -0.4,9.49 Z M 113.1,198 c 0.51,14.59 -0.47,30.4 0.5,44.8 c 0.08,0.59 0.38,1.02 0.9,1.3 c 4.67,0.46 9.34,0.53 14.03,0.21 c 0.93,0.06 1.68,-0.27 2.24,-0.98 c 0.31,-14.25 0.45,-28.5 0.42,-42.75 c 0.81,-3.63 5.53,-2.82 8.31,-3.06 c 7,0.22 14,0.24 21,0.07 c 2.78,-0.18 4.11,1.13 3.99,3.91 c 0.24,14.01 0.33,28.02 0.29,42.02 c 0.35,1.91 4.33,0.75 5.66,1.1 c 1.88,0.27 1.58,-1.93 1.64,-3.11 c -0.08,-15.68 -0.04,-31.35 0.13,-47.02 c 0.14,-0.99 -0.09,-1.86 -0.7,-2.62 c -19.01,-0.02 -38.03,-0.07 -57.06,-0.13 c -2.22,0.14 -1.01,4.83 -1.35,6.26 Z M 137.88,225 c 0.03,5.85 0.04,11.7 0.02,17.55 c -0.06,0.63 0.13,1.17 0.58,1.6 c 5.94,0.35 11.89,0.48 17.87,0.39 c 0.47,0.05 0.88,-0.09 1.21,-0.42 c 0.32,-8.52 0.42,-17.05 0.32,-25.58 c -0.03,-3.95 -0.06,-7.89 -0.07,-11.83 c 0.12,-1.46 -0.55,-2.21 -2.01,-2.24 c -5.37,-0.09 -10.75,-0.09 -16.13,0.01 c -1.29,0 -1.86,0.66 -1.7,1.99 c -0.03,6.17 -0.06,12.35 -0.09,18.53 Z M 199.46,220 c 0.01,2.51 0.08,5.01 0.2,7.51 c -0.12,2.04 0.83,3.19 2.85,3.43 c 19.58,3.94 21.72,-27.99 1.98,-26.96 c -1.47,0.17 -4.8,0.38 -4.87,2.44 c 0.01,4.53 -0.04,9.06 -0.16,13.58 Z M 199.44,240.15 c -1.35,6.02 7,7.53 5.54,-0.66 c 0.47,-1.86 -6.45,-3.86 -5.54,0.66 Z"/></g>
<g><path fill="var(--brass)" fill-opacity="0.988" d="M 51.7,142.92 c 0.14,20.04 0.07,40.08 -0.2,60.12 c -0.48,-0.77 -0.69,-1.61 -0.65,-2.52 c -0.08,-6.96 -0.14,-13.92 -0.17,-20.87 c -0.22,-0.45 -0.59,-0.66 -1.09,-0.63 c -2.87,0.86 -5.27,2.43 -7.2,4.72 c -0.18,-1.4 -0.25,-2.84 -0.2,-4.31 c -0.04,-0.87 -0.48,-1.33 -1.33,-1.37 c -1.97,-2.37 -5.35,-2.61 -6.28,0.79 c -0.29,9.49 -0.52,18.97 -0.69,28.46 c -2.12,-1.11 -4.26,-2.2 -6.42,-3.27 c -27.16,-17.97 -18.12,-64.08 16.03,-62.27 c 2.52,-0.29 6.06,1.93 8.2,1.15 Z"/></g>
<g><path fill="var(--brass)" fill-opacity="0.992" d="M 137.88,225 c 0.03,-6.18 0.06,-12.36 0.09,-18.53 c -0.16,-1.33 0.41,-1.99 1.7,-1.99 c 5.38,-0.1 10.76,-0.1 16.13,-0.01 c 1.46,0.03 2.13,0.78 2.01,2.24 c 0.01,3.94 0.04,7.88 0.07,11.83 c 0.1,8.53 0,17.06 -0.32,25.58 c -0.33,0.33 -0.74,0.47 -1.21,0.42 c -5.98,0.09 -11.93,-0.04 -17.87,-0.39 c -0.45,-0.43 -0.64,-0.97 -0.58,-1.6 c 0.02,-5.85 0.01,-11.7 -0.02,-17.55 Z"/></g>
<g><path fill="#261612" fill-opacity="0.941" d="M 72.04,212 c 0.07,-2.39 -0.57,-6.1 2.54,-6.82 c 4.98,-0.22 9.95,-0.25 14.93,-0.08 c 2.3,-0.03 3.5,1.1 3.59,3.39 c 0.13,6.67 0.11,13.35 -0.04,20.02 c 0.19,1.96 -0.65,3.15 -2.54,3.54 c -5.01,0.22 -10.02,0.3 -15.04,0.23 c -2.36,-0.13 -3.5,-1.39 -3.42,-3.77 c 0,-5.51 -0.01,-11.01 -0.02,-16.51 Z M 78.25,224 c -0.24,1.11 0.18,1.78 1.25,2.03 c 1.45,-0.25 6.71,0.93 7.37,-0.64 c 0.03,-4.28 0.01,-8.55 -0.04,-12.83 c 0.04,-0.53 -0.16,-0.94 -0.58,-1.24 c -1.9,-0.14 -3.81,-0.21 -5.73,-0.22 c -1.38,-0.1 -2.08,0.55 -2.08,1.95 c -0.09,3.65 -0.15,7.3 -0.19,10.95 Z"/></g>
<g><path fill="var(--brass)" fill-opacity="0.204" d="M 78.25,224 c 0.04,-3.65 0.1,-7.3 0.19,-10.95 c 0,-1.4 0.7,-2.05 2.08,-1.95 c 1.92,0.01 3.83,0.08 5.73,0.22 c 0.42,0.3 0.62,0.71 0.58,1.24 c 0.05,4.28 0.07,8.55 0.04,12.83 c -0.66,1.57 -5.92,0.39 -7.37,0.64 c -1.07,-0.25 -1.49,-0.92 -1.25,-2.03 Z"/></g>
<g><path fill="#261612" fill-opacity="0.051" d="M 199.44,240.15 c -0.91,-4.52 6.01,-2.52 5.54,-0.66 c 1.46,8.19 -6.89,6.68 -5.54,0.66 Z"/></g>
<g><path fill="var(--brass)" fill-opacity="0.863" d="M 78.47,137 c 0.07,-1.88 0.12,-3.75 0.16,-5.63 c -0.15,-2.74 4.29,-1.52 5.9,-1.87 c 1.53,-0.12 2.3,0.56 2.31,2.05 c 0.04,3.66 0.1,7.31 0.16,10.96 c 0.06,0.6 -0.13,1.1 -0.58,1.49 c -2.3,0.34 -4.62,0.37 -6.94,0.09 c -1.49,-0.7 -0.66,-5.6 -1.01,-7.09 Z"/></g>
<g><path fill="#261612" fill-opacity="0.039" d="M 153.04,129.06 c -0.17,2.61 0.66,14.13 -0.19,15.68 c -3.11,0.1 -6.22,0.14 -9.33,0.12 c -1.39,-0.13 -1.97,-0.91 -1.77,-2.34 c 0,-3.83 0.02,-7.67 0.04,-11.51 c 0.48,0.03 0.84,-0.16 1.07,-0.58 c -0.1,-2.09 0.09,-4.14 0.56,-6.14 c 1.4,-0.06 2.77,0.06 4.13,0.37 c 0.58,0.52 1.17,1.03 1.75,1.55 c 0.81,0.13 1.61,0.34 2.38,0.61 c 0.58,0.73 0.03,2.49 1.36,2.24 Z"/></g>
<g><path fill="#261612" fill-opacity="0.016" d="M 160.09,123.08 c 2.1,-1.07 6.95,-0.26 9.44,-0.5 c 1,-0.12 1.8,0.21 2.41,0.98 c 0.29,6.65 0.34,13.3 0.15,19.95 c -0.05,0.56 -0.32,0.95 -0.8,1.2 c -3.75,0.06 -7.5,0.06 -11.25,-0.02 c -0.21,-7.2 -0.2,-14.4 0.05,-21.61 Z"/></g>
<g><path fill="var(--brass)" fill-opacity="0.961" d="M 152.79,123.22 c 2.42,-0.7 4.86,-0.75 7.3,-0.14 c -0.25,7.21 -0.26,14.41 -0.05,21.61 c -2.39,0.2 -4.79,0.21 -7.19,0.05 c 0.85,-1.55 0.02,-13.07 0.19,-15.68 c 0.03,-1.95 -0.06,-3.9 -0.25,-5.84 Z"/></g>
<g><path fill="var(--brass)" fill-opacity="0.129" d="M 152.79,123.22 c 0.19,1.94 0.28,3.89 0.25,5.84 c -1.33,0.25 -0.78,-1.51 -1.36,-2.24 c -0.77,-0.27 -1.57,-0.48 -2.38,-0.61 c -0.58,-0.52 -1.17,-1.03 -1.75,-1.55 c -1.36,-0.31 -2.73,-0.43 -4.13,-0.37 c -0.47,2 -0.66,4.05 -0.56,6.14 c -0.23,0.42 -0.59,0.61 -1.07,0.58 c 0.28,-1.56 -0.49,-7.26 0.73,-8.1 c 2.65,-0.23 5.32,-0.32 8,-0.27 c 0.8,0.02 1.56,0.21 2.27,0.58 Z"/></g>
<g><path fill="var(--brass)" fill-opacity="0.024" d="M 159.99,59.23 c 3.48,-0.05 6.96,0 10.44,0.15 c 0.48,-0.04 0.89,0.11 1.24,0.44 c 0.36,3.54 0.5,7.1 0.43,10.68 c 0.03,3.01 0.03,6.02 0.01,9.04 c -0.04,1.73 -0.93,2.41 -2.66,2.05 c -3.12,0.02 -6.23,-0.14 -9.32,-0.49 c -0.3,-7.28 -0.35,-14.58 -0.14,-21.87 Z"/></g>
<g><path fill="var(--brass)" fill-opacity="0.949" d="M 159.99,59.23 c -0.21,7.29 -0.16,14.59 0.14,21.87 c -2.32,0.76 -4.67,0.81 -7.04,0.17 c 0.67,-6.89 -0.04,-14.41 -0.19,-21.35 c 1.68,-1.26 5.09,-0.61 7.09,-0.69 Z"/></g>
<g><path fill="var(--brass)" fill-opacity="0.035" d="M 152.9,59.92 c 0.15,6.94 0.86,14.46 0.19,21.35 c -2.98,0.81 -7.23,0.43 -10.35,0.4 c -1.24,-0.45 -0.95,-2.16 -1.05,-3.17 c -0.15,-6.28 0.01,-12.56 0.47,-18.81 c 0.37,-0.39 0.82,-0.55 1.36,-0.48 c 2.66,0.1 5.31,0.14 7.97,0.1 c 0.64,-0.1 1.11,0.1 1.41,0.61 Z"/></g>
<g><path fill="var(--brass)" fill-opacity="0.424" d="M 78.53,181 c 0.02,-3.17 0.15,-6.34 0.4,-9.49 c 0.37,-0.51 0.88,-0.75 1.51,-0.73 c 1.97,-0.09 3.92,0.03 5.85,0.36 c 0.79,1.02 0.45,10.36 0.47,12.29 c 0.06,0.54 -0.09,1.01 -0.47,1.39 c -1.62,0.33 -7.56,1.37 -7.7,-1.21 c -0.05,-0.87 -0.07,-1.74 -0.06,-2.61 Z"/></g>
<g><path fill="var(--brass)" fill-opacity="0.345" d="M 78.45,100 c 0.02,-3.53 0.15,-7.04 0.4,-10.54 c 0.82,-1.27 4.31,-0.35 5.69,-0.74 c 1.13,-0.13 1.81,0.34 2.05,1.39 c 0.06,4 0.03,7.99 -0.08,11.97 c -0.31,0.34 -0.7,0.51 -1.16,0.51 c -2.24,-0.21 -7.43,1.28 -6.9,-2.59 Z"/></g>
<g><path fill="var(--brass)" fill-opacity="0.988" d="M 40.86,178.06 c 0.85,0.04 1.29,0.5 1.33,1.37 c -0.05,1.47 0.02,2.91 0.2,4.31 c 1.93,-2.29 4.33,-3.86 7.2,-4.72 c 0.5,-0.03 0.87,0.18 1.09,0.63 c 0.03,6.95 0.09,13.91 0.17,20.87 c -0.04,0.91 0.17,1.75 0.65,2.52 c -0.11,0.34 -0.21,0.69 -0.32,1.04 c -2.59,1.38 -5.31,2.46 -8.15,3.24 c -1.22,-0.05 -1.79,-0.7 -1.7,-1.94 c -0.06,-9.11 -0.22,-18.22 -0.47,-27.32 Z"/></g>
</svg>
